<svg xmlns="http://www.w3.org/2000/svg" width="189" height="33" viewBox="0 0 189 33">
    <path fill="#FEFEFE" fill-rule="evenodd" d="M183.439 5.151c-.516 0-.908.195-1.163.579-.232.351-.345.928-.345 1.765 0 .884.082 1.439.257 1.745.138.243.434.533 1.064.533h1.235V26.72c0 .705.392 1.544 2.257 1.544 1.865 0 2.256-.84 2.256-1.544V7.111c0-.893-.424-1.96-2.443-1.96h-3.118zM170.59 23.77h-7.254v-5.533h6.942c.747 0 1.28-.155 1.629-.476.355-.324.534-.856.534-1.58 0-.718-.177-1.259-.526-1.604-.347-.342-.897-.515-1.637-.515h-6.942v-4.8h7.254c.667 0 1.2-.155 1.583-.461.408-.326.603-.877.58-1.634-.024-.744-.221-1.284-.585-1.607-.355-.313-.876-.472-1.547-.472h-9.636c-.737 0-1.284.146-1.672.444-.408.313-.615.855-.615 1.611v18.746c0 .784.22 1.335.658 1.637.402.279.949.42 1.629.42h9.605c.863 0 1.47-.146 1.859-.444.408-.314.616-.868.616-1.645 0-.776-.208-1.33-.616-1.643-.388-.298-.996-.444-1.86-.444zm-16.718-1.441c-.592-.277-1.213-.196-1.827.259-.268.21-.538.417-.805.617a5.541 5.541 0 0 1-1.96.942 6.572 6.572 0 0 1-1.46.198l-.143.003c-1.01 0-1.911-.21-2.678-.623a6.146 6.146 0 0 1-2.04-1.752 8.03 8.03 0 0 1-1.247-2.54 10.501 10.501 0 0 1-.423-2.963c0-1.014.128-2.003.379-2.94a8.094 8.094 0 0 1 1.11-2.479 5.833 5.833 0 0 1 1.813-1.717c.71-.429 1.536-.646 2.455-.646.829 0 1.529.126 2.08.375.578.259 1.084.53 1.505.808.442.29.848.536 1.205.73.43.235.915.24 1.329.05.26-.098.49-.235.684-.407.19-.171.323-.32.413-.476.044-.09.104-.235.182-.44.09-.24.112-.527.064-.85-.05-.38-.265-.8-.658-1.286-.372-.458-.89-.9-1.536-1.308-.642-.406-1.41-.75-2.283-1.022-.877-.274-1.85-.412-2.891-.412-1.466 0-2.852.276-4.12.821a9.5 9.5 0 0 0-3.313 2.372c-.926 1.024-1.67 2.293-2.211 3.771-.54 1.475-.824 3.175-.845 5.052-.022 1.88.247 3.588.798 5.075.552 1.49 1.34 2.777 2.34 3.824a10.032 10.032 0 0 0 3.58 2.4c1.37.544 2.87.82 4.457.82 1.107 0 2.119-.157 3.009-.463.885-.307 1.648-.679 2.268-1.105.626-.432 1.12-.884 1.47-1.342.367-.482.569-.866.62-1.187a2.182 2.182 0 0 0-.214-1.224c-.2-.405-.577-.723-1.107-.936zm-30.846-3.636l2.005-6.613 2.005 6.613h-4.01zm4.34-12.406c-.121-.397-.381-.754-.771-1.059-.394-.305-.92-.46-1.564-.46s-1.17.155-1.565.46c-.391.305-.651.662-.77 1.052l-6.423 19.195c-.332.99-.258 1.72.218 2.167.439.414 1.024.622 1.742.622.715 0 1.274-.181 1.66-.54.367-.34.655-.793.858-1.344l1.299-3.48h5.932l1.424 3.644c.18.462.445.869.785 1.206.348.342.858.517 1.516.517l.122-.003c.718 0 1.304-.214 1.744-.64.47-.455.565-1.155.278-2.088l-6.484-19.249zm-13.592-1.199h-9.636c-.738 0-1.285.146-1.672.444-.41.313-.616.855-.616 1.611v19.514c0 .383.183.752.545 1.096.36.345.93.511 1.743.511.807 0 1.385-.165 1.766-.505.388-.345.584-.715.584-1.102v-8.42h6.319c.747 0 1.279-.155 1.629-.476.354-.324.534-.856.534-1.58 0-.696-.176-1.229-.544-1.604-.405-.342-.95-.515-1.62-.515h-6.318v-4.8h7.254c.667 0 1.2-.155 1.583-.461.409-.328.604-.877.58-1.634-.024-.744-.22-1.284-.585-1.607-.355-.313-.875-.472-1.546-.472zM86.384 14.38V9.325h2.983c.438 0 .868.037 1.276.109.387.068.73.193 1.019.375.28.175.495.415.659.73.163.319.246.733.246 1.234 0 1.077-.252 1.78-.75 2.092-.542.342-1.366.515-2.45.515h-2.983zm5.326 3.994c.028-.004.056-.01.084-.016l.63-.13c1.449-.331 2.62-1.02 3.479-2.045.864-1.03 1.302-2.524 1.302-4.441 0-1.246-.17-2.31-.504-3.162-.342-.866-.856-1.57-1.53-2.091-.666-.514-1.502-.881-2.486-1.091-.962-.207-2.08-.31-3.318-.31h-4.71a9.33 9.33 0 0 0-1.368.082c-.398.063-.702.182-.931.363-.238.19-.403.46-.492.797-.08.303-.12.684-.12 1.165v18.81c0 .452.17.893.504 1.307.348.433.937.651 1.753.651.804 0 1.408-.2 1.797-.598.388-.398.584-.855.584-1.36v-6.98l7.766 8.373c.37.38.853.572 1.43.572a2.558 2.558 0 0 0 1.883-.797c.473-.485.7-1.054.677-1.692-.023-.628-.272-1.19-.741-1.67l-5.69-5.737zM75.397 4.767c-.857 0-1.468.22-1.816.652-.334.415-.503.856-.503 1.308v11.816c0 .916-.062 1.736-.183 2.44-.117.676-.336 1.254-.653 1.716a3.035 3.035 0 0 1-1.268 1.049c-.541.248-1.246.373-2.095.373-.87 0-1.59-.13-2.14-.388a3.076 3.076 0 0 1-1.283-1.08c-.32-.476-.551-1.062-.688-1.742a12.09 12.09 0 0 1-.212-2.368V6.727c0-.502-.184-.957-.547-1.354-.368-.402-.964-.606-1.772-.606-.812 0-1.41.217-1.78.646-.357.417-.54.859-.54 1.314v13.796c0 1.345.27 2.527.8 3.514a7.689 7.689 0 0 0 2.06 2.458 8.734 8.734 0 0 0 2.855 1.453 11.207 11.207 0 0 0 6.463 0 8.398 8.398 0 0 0 2.842-1.473 7.59 7.59 0 0 0 2.012-2.474c.508-.988.766-2.157.766-3.478V6.727c0-.502-.184-.957-.546-1.354-.37-.402-.965-.606-1.772-.606zM55.45 17c-.463-.507-1.056-.986-1.762-1.426a22.25 22.25 0 0 0-2.465-1.295 35.827 35.827 0 0 0-1.273-.547 7.8 7.8 0 0 1-1.293-.678 4.208 4.208 0 0 1-1.007-.896 1.661 1.661 0 0 1-.37-1.085c0-.258.056-.526.165-.797.11-.274.266-.524.46-.743.194-.216.433-.399.71-.54.52-.268 1.236-.265 1.89-.061.326.1.637.223.924.366.289.141.566.302.825.476.267.179.504.342.687.47.185.163.42.271.699.324.266.05.54.042.816-.018.27-.06.533-.17.778-.325.254-.162.469-.381.643-.662.317-.548.36-1.136.13-1.746-.216-.568-.624-1.1-1.213-1.579-.573-.464-1.3-.857-2.16-1.165a8.875 8.875 0 0 0-2.801-.495l-.206-.003c-.83 0-1.656.123-2.457.367a7.328 7.328 0 0 0-2.353 1.197 6.067 6.067 0 0 0-1.688 2.03c-.426.818-.643 1.773-.643 2.839 0 1 .178 1.881.529 2.622a6.088 6.088 0 0 0 1.409 1.912c.58.529 1.269.99 2.048 1.372a25.34 25.34 0 0 0 2.482 1.052c.3.104.64.248 1.009.432.359.18.695.407.996.676.298.265.556.58.769.937.2.332.3.732.3 1.185 0 .485-.085.922-.253 1.295-.17.375-.396.69-.675.937a3.04 3.04 0 0 1-.983.583c-.83.307-1.718.244-2.44.027a6.51 6.51 0 0 1-1.164-.474 9.267 9.267 0 0 1-1.058-.65 58.799 58.799 0 0 0-.99-.692 1.905 1.905 0 0 0-1.334-.318c-.493.066-.915.375-1.244.904-.201.284-.31.63-.32 1.028-.013.381.063.777.224 1.178.158.393.413.783.759 1.16.345.376.808.715 1.373 1.003.612.325 1.346.628 2.182.897a7.57 7.57 0 0 0 2.732.35c2.623-.086 4.609-.81 5.905-2.148 1.296-1.337 1.974-3.12 2.018-5.295.02-.82-.073-1.564-.28-2.21a4.787 4.787 0 0 0-1.03-1.771zM15.447 27.677v-5.613h3.574c.59 0 1.07-.535 1.07-1.196 0-.66-.48-1.194-1.07-1.194h-3.584l-.013-1.976h7.1c.59 0 1.07-.535 1.07-1.194 0-.662-.48-1.196-1.07-1.196h-7.115l-.012-1.911h3.624c.59 0 1.07-.536 1.07-1.196 0-.661-.48-1.197-1.07-1.197h-3.64l-.033-5.44 14.938 10.988-14.84 11.125zM14.592.461a1.755 1.755 0 0 0-1.876-.14c-.602.315-.98.952-.98 1.648l.002 9.035H5.157c-.591 0-1.07.536-1.07 1.197 0 .66.479 1.196 1.07 1.196h6.58l.002 1.91H1.069c-.59 0-1.07.536-1.07 1.197 0 .66.48 1.194 1.07 1.194h10.67v1.976H5.157c-.591 0-1.07.535-1.07 1.194 0 .662.479 1.196 1.07 1.196h6.583l.002 9.081c0 .698.378 1.327.98 1.648a1.755 1.755 0 0 0 1.876-.139L34.44 18.085c.472-.345.756-.91.756-1.503-.012-.613-.29-1.176-.762-1.521L14.592.46z"/>
</svg>
